<?xml version="1.0" encoding="UTF-8"?>
<svg id="Layer_2" data-name="Layer 2" xmlns="http://www.w3.org/2000/svg" xmlns:xlink="http://www.w3.org/1999/xlink" viewBox="0 0 346.63 294.13">
  <defs>
    <style>
      .cls-1 {
        clip-path: url(#clippath);
      }

      .cls-2, .cls-3 {
        fill: none;
      }

      .cls-2, .cls-3, .cls-4, .cls-5, .cls-6, .cls-7, .cls-8, .cls-9, .cls-10, .cls-11, .cls-12, .cls-13 {
        stroke-width: 0px;
      }

      .cls-14 {
        clip-path: url(#clippath-1);
      }

      .cls-15 {
        clip-path: url(#clippath-2);
      }

      .cls-3 {
        clip-rule: evenodd;
      }

      .cls-4 {
        fill: #0085cb;
      }

      .cls-4, .cls-5, .cls-6, .cls-7 {
        fill-rule: evenodd;
      }

      .cls-5 {
        fill: #00652e;
      }

      .cls-6, .cls-12 {
        fill: #ffca05;
      }

      .cls-7, .cls-10 {
        fill: #fff;
      }

      .cls-8 {
        fill: #231f20;
      }

      .cls-9 {
        fill: #b7d333;
      }

      .cls-11 {
        fill: #ec1c24;
      }

      .cls-13 {
        fill: #005eb8;
      }
    </style>
    <clipPath id="clippath">
      <polygon class="cls-2" points="63.12 83.37 136.45 83.37 173.31 19.79 209.93 83.37 283.5 83.37 246.84 147.06 283.5 210.61 210.16 210.61 173.31 274.34 136.45 210.82 63.12 210.82 99.88 147.06 63.12 83.37"/>
    </clipPath>
    <clipPath id="clippath-1">
      <path class="cls-3" d="M-15.8,210.17s2.34,166.16,189.11,214.12c186.76-47.9,189.34-214.06,189.34-214.06l-.12-312.8s-378.46-.02-378.45-.07l.13,312.8Z"/>
    </clipPath>
    <clipPath id="clippath-2">
      <path class="cls-3" d="M326.06,178.28l-.07-206.8s-305.33-.02-305.36-.05l.03,206.8,305.4.05Z"/>
    </clipPath>
  </defs>
  <g id="Layer_1-2" data-name="Layer 1">
    <g>
      <g id="XrJhmX">
        <g>
          <path class="cls-13" d="M346.63,84.27c-.69,0-1.39.02-2.08.02-114.16,0-228.32,0-342.48,0-.69,0-1.39-.02-2.08-.02,0-13.06,0-26.11,0-39.17.68.05,1.37.16,2.05.16,114.17,0,228.35,0,342.52,0,.68,0,1.37-.1,2.05-.16v39.17Z"/>
          <path class="cls-13" d="M0,210.79c.69,0,1.39-.02,2.08-.02,114.16,0,228.32,0,342.48,0,.69,0,1.39.02,2.08.02v39.17c-.68-.05-1.37-.15-2.05-.15-114.17,0-228.35,0-342.52,0-.69,0-1.37.1-2.06.15,0-13.06,0-26.11,0-39.17Z"/>
        </g>
      </g>
      <g>
        <g class="cls-1">
          <g>
            <path class="cls-5" d="M362.51-92.42l.03,284.14s0,40.3-3.39,55.73c-3.17,14.4-9.3,33.89-21.17,54.81-24.13,42.52-70.79,88.78-158.6,111.3l-6.03,1.55-6.03-1.55c-87.83-22.55-134.45-68.84-158.52-111.38-11.84-20.93-17.94-40.42-21.09-54.83-3.37-15.44-3.61-55.7-3.61-55.7l-.03-284.12,378.44.07Z"/>
            <g class="cls-14">
              <rect class="cls-9" x="173.21" y="120.88" width="120.15" height="13.8"/>
              <polygon class="cls-9" points="293.36 178.86 170.85 134.25 175.57 121.28 293.36 164.17 293.36 178.41 293.36 178.86"/>
              <path class="cls-9" d="M653.73,593.21L219.72,172.33l4.44-5.29,475.55,250.48c-11.05,42.7-25.92,124.57-45.98,175.69Z"/>
              <path class="cls-9" d="M505.48,835.56L195.11,175.86l7.17-4.14,403.39,561.34c-30.52,34.79-63.84,69.08-100.2,102.5Z"/>
              <path class="cls-9" d="M233.1,932.38l-55.39-758.56,6.8-1.2,179.5,707.21c-41.59,18.61-85.2,36.18-130.9,52.55Z"/>
              <path class="cls-9" d="M-17.36,879.26L161.93,172.59l6.8,1.2-55.21,758.24c-45.7-16.45-89.3-34.08-130.88-52.78Z"/>
              <path class="cls-9" d="M-258.67,731.93L144.57,171.71l7.17,4.14L-158.62,834.77c-36.31-33.54-69.59-67.94-100.05-102.83Z"/>
              <path class="cls-9" d="M-352.06,419.16L117.28,170.03l4.44,5.29-428.14,421.07c-19.96-51.29-34.72-134.48-45.64-177.22Z"/>
              <polygon class="cls-9" points="53.28 164.05 170.85 121.28 175.57 134.25 53.28 178.74 53.28 178.52 53.28 164.05"/>
              <polygon class="cls-9" points="53.29 120.84 173.21 120.87 173.21 134.67 53.28 134.64 53.29 120.84"/>
            </g>
            <path class="cls-4" d="M372.24,177.39l-.09-229.49s-397.65-.02-397.7-.05l.04,229.49,397.75.05Z"/>
            <g class="cls-15">
              <path class="cls-6" d="M112.39,181.75c0-33.73,27.31-61.07,61.05-61.07,33.73,0,61.08,27.36,61.09,61.09l-122.13-.02Z"/>
              <rect class="cls-12" x="105.11" y="93.94" width="164.45" height="13.64" transform="translate(55.8 267.93) rotate(-80.08)"/>
              <polygon class="cls-12" points="269.97 28.71 179.07 185.17 167.27 178.34 258.17 21.88 269.97 28.71"/>
              <rect class="cls-12" x="152.21" y="117.32" width="179.35" height="13.64" transform="translate(-23.23 184.42) rotate(-39.98)"/>
              <rect class="cls-12" x="168.67" y="149.43" width="149.18" height="13.64" transform="translate(-38.76 92.58) rotate(-19.99)"/>
              <rect class="cls-12" x="96.24" y="81.61" width="13.63" height="149.22" transform="translate(-79 199.6) rotate(-69.99)"/>
              <rect class="cls-12" x="109.2" y="59.17" width="13.63" height="149.23" transform="translate(-61.05 136.64) rotate(-49.99)"/>
              <rect class="cls-12" x="119.74" y="7.88" width="13.63" height="186.37" transform="translate(-33.58 76.86) rotate(-30.01)"/>
              <rect class="cls-12" x="151.3" y="11.2" width="13.64" height="171.88" transform="translate(-14.57 29.19) rotate(-10.09)"/>
            </g>
            <polygon class="cls-7" points="191.66 178.27 244.79 178.28 244.79 152.96 244.79 135.42 226.96 152.95 226.96 135.42 209.43 152.95 209.42 134.8 191.44 152.79 191.66 178.27"/>
            <rect class="cls-8" x="195.2" y="157.81" width="10.44" height="6.9"/>
            <rect class="cls-8" x="212.7" y="157.81" width="10.44" height="6.9"/>
            <rect class="cls-8" x="230.9" y="157.82" width="10.44" height="6.9"/>
            <path class="cls-8" d="M171.08,147.32c-1.12,0-2.02.9-2.02,2.02l.1,11.8c0,1.12.91,2.02,2.02,2.02,1.12,0,1.97-.9,1.97-2.02v-8.58s.86,0,.86,0v24.83c0,1.12.98,2.15,2.1,2.16,1.12,0,2.02-.9,2.02-2.02l-.11-12.46h1.14s.11,12.46.11,12.46c0,1.12.9,2.02,2.02,2.02,1.12,0,1.99-1.04,1.99-2.15v-24.83s.79,0,.79,0l.11,8.69c0,1.12.9,2.02,2.02,2.02,1.12,0,2.02-.9,2.02-2.02l-.11-11.91c0-1.12-.9-2.02-2.02-2.02h-15Z"/>
            <path class="cls-8" d="M183.4,141.7c0-2.63-2.14-4.77-4.77-4.77-2.64,0-4.77,2.14-4.77,4.77,0,2.63,2.14,4.77,4.77,4.77,2.63,0,4.77-2.14,4.77-4.77Z"/>
            <path class="cls-8" d="M156.69,141.68c0-2.63,2.13-4.77,4.77-4.77,2.63,0,4.77,2.14,4.77,4.77,0,2.63-2.13,4.77-4.77,4.77-2.63,0-4.77-2.14-4.77-4.77Z"/>
            <path class="cls-8" d="M157.01,147.19c-1.92,0-3.51,1.22-4.21,2.89l-2.85,10.79c-.29,1.09.35,2.21,1.44,2.5,1.09.29,2.21-.35,2.5-1.44l2.07-7.6h1.05s-3.85,14.71-3.85,14.71h3.72s.06,8.31.06,8.31c0,1.13.93,2.18,2.06,2.18,1.13,0,2.04-.91,2.04-2.04l-.07-8.44h1.15s.07,8.44.07,8.44c0,1.13.91,2.04,2.04,2.04,1.13,0,2.06-1.05,2.06-2.18l-.07-8.3h3.7s-3.79-14.71-3.79-14.71h1.05s2.01,7.38,2.01,7.38c.29,1.09,1.41,1.73,2.5,1.44,1.09-.29,1.73-1.41,1.44-2.5l-2.78-10.57c-.7-1.67-2.29-2.89-4.21-2.89h-9.12Z"/>
            <polygon class="cls-10" points="138.67 178.26 102.42 178.25 102.41 153.86 120.57 135.63 138.67 153.87 138.67 178.26"/>
            <polygon class="cls-11" points="92.38 154.18 120.56 125.98 148.79 154.21 139.15 163.85 120.57 145.27 102.03 163.82 92.38 154.18"/>
            <rect class="cls-8" x="115.31" y="157.8" width="10.44" height="6.9"/>
          </g>
        </g>
        <path class="cls-13" d="M173.28,20.15l33.61,58.35,2.91,5.05h73.4l-33.66,58.49-2.9,5.03,2.9,5.03,33.64,58.3h-73.1l-2.91,5.03-33.87,58.57-33.85-58.34-2.91-5.02H63.43l33.76-58.56,2.9-5.04-2.91-5.04-33.75-58.48h73.09l2.91-5.03,33.84-58.37M173.31,0l-42.58,73.46H45.98l42.48,73.6-42.48,73.67h84.74l42.58,73.39,42.58-73.64h84.74l-42.36-73.42,42.36-73.6h-85.01L173.31,0h0Z"/>
      </g>
    </g>
  </g>
</svg>